<svg width="124" height="23" xmlns="http://www.w3.org/2000/svg" xmlns:xlink="http://www.w3.org/1999/xlink" xml:space="preserve" overflow="hidden"><defs><linearGradient x1="-0.276389" y1="15.7388" x2="14.5913" y2="15.7388" gradientUnits="userSpaceOnUse" spreadMethod="pad" id="fill0"><stop offset="0" stop-color="#3D54CE" stop-opacity="1"/><stop offset="1" stop-color="#35CACF" stop-opacity="1"/></linearGradient><linearGradient x1="6.37327" y1="15.7388" x2="23.9876" y2="15.7388" gradientUnits="userSpaceOnUse" spreadMethod="pad" id="fill1"><stop offset="0" stop-color="#13457D" stop-opacity="1"/><stop offset="1" stop-color="#279698" stop-opacity="1"/></linearGradient><linearGradient x1="-0.0955478" y1="5.23474" x2="14.7843" y2="5.23474" gradientUnits="userSpaceOnUse" spreadMethod="pad" id="fill2"><stop offset="0" stop-color="#090086" stop-opacity="1"/><stop offset="1" stop-color="#2F96A9" stop-opacity="1"/></linearGradient><linearGradient x1="6.37327" y1="5.23474" x2="23.9876" y2="5.23474" gradientUnits="userSpaceOnUse" spreadMethod="pad" id="fill3"><stop offset="0" stop-color="#3B62CA" stop-opacity="1"/><stop offset="1" stop-color="#93DFE3" stop-opacity="1"/></linearGradient></defs><g transform="translate(-1112 -677)"><g><g><g><g><path d="M119.6 2.43409C119.603 3.06406 119.095 3.57744 118.465 3.58074 118.446 3.58084 118.426 3.58044 118.407 3.57955 117.753 3.58484 117.219 3.05921 117.213 2.40553 117.213 2.39915 117.213 2.39275 117.213 2.38636 117.21 1.75639 117.718 1.24302 118.348 1.23972 118.367 1.23961 118.387 1.24001 118.407 1.24091 119.061 1.25114 119.59 1.7794 119.6 2.43409ZM119.457 2.43409C119.454 1.88164 119.007 1.43443 118.454 1.43182 117.894 1.43378 117.434 1.87475 117.409 2.43409 117.411 2.98654 117.859 3.43375 118.411 3.43636 118.975 3.45227 119.445 3.00807 119.461 2.44421 119.461 2.44084 119.461 2.43747 119.461 2.43409ZM118.645 2.52955 118.979 3.05455 118.693 3.05455 118.364 2.52955 118.173 2.52955 118.173 3.05455 117.934 3.05455 117.934 1.81364 118.411 1.81364C118.606 1.79712 118.776 1.94129 118.793 2.13565 118.795 2.15554 118.795 2.17555 118.793 2.19545 118.858 2.29779 118.828 2.43347 118.725 2.4985 118.701 2.51406 118.674 2.52461 118.645 2.52955ZM118.216 2.38636 118.454 2.38636C118.557 2.37943 118.638 2.29788 118.645 2.19545 118.638 2.09303 118.557 2.01148 118.454 2.00455L118.216 2.00455ZM75.7384 5.05909 77.5043 5.05909 77.5043 15.6068 75.7384 15.6068ZM69.2952 4.82045C68.166 4.81988 67.0707 5.20743 66.193 5.91818L66.193 5.05909 64.4318 5.05909 64.4318 15.6068 66.1977 15.6068 66.1977 9.68864C66.1977 7.9885 67.5761 6.61023 69.2761 6.61023 70.9762 6.61023 72.3545 7.9885 72.3545 9.68864L72.3545 15.6545 74.1205 15.6545 74.1205 9.68864C74.1496 7.02918 72.0171 4.84971 69.3577 4.82074 69.3382 4.82055 69.3191 4.82045 69.3 4.82045ZM60.943 5.05909 62.7089 5.05909 62.7089 15.225C62.6578 18.2349 60.2299 20.6626 57.2202 20.7136 54.8095 20.7709 52.6585 19.2067 51.9702 16.8955L53.8793 16.8955C54.484 18.1846 55.797 18.9911 57.2202 18.9477 59.2725 18.8763 60.9191 17.2293 60.9907 15.1773L60.9907 14.3182C58.7632 16.386 55.2815 16.2566 53.2135 14.0292 51.146 11.8019 51.2753 8.32006 53.5027 6.25227 55.6137 4.29227 58.8792 4.29227 60.9907 6.25227L60.943 5.05909ZM60.943 10.3091C60.943 8.2267 59.2548 6.53864 57.1725 6.53864 55.0902 6.53864 53.402 8.22675 53.402 10.3091 53.402 12.3915 55.0902 14.0795 57.1725 14.0795 59.2525 14.0743 60.9377 12.3893 60.943 10.3091ZM33.7384 6.58636C35.1877 6.58856 36.5064 7.42441 37.127 8.73409L38.9884 8.73409C38.1054 5.82048 35.0276 4.17439 32.114 5.05742 29.2004 5.94042 27.5543 9.01821 28.4373 11.9318 29.3203 14.8454 32.3981 16.4915 35.3117 15.6085 37.0746 15.0742 38.4542 13.6947 38.9884 11.9318L37.127 11.9318C36.2346 13.7928 34.0026 14.5781 32.1415 13.6857 30.3122 12.8084 29.5169 10.6318 30.3498 8.78182 30.9431 7.44197 32.2731 6.5803 33.7384 6.58636ZM50.8725 10.3091C50.8859 13.3535 48.4284 15.8322 45.3839 15.8454 42.3394 15.8585 39.8608 13.4012 39.8476 10.3568 39.8344 7.3123 42.2918 4.83363 45.3362 4.82045 45.3378 4.82045 45.3393 4.82045 45.3409 4.82045 48.3811 4.81773 50.8539 7.26901 50.8773 10.3091ZM49.1066 10.3091C49.1066 8.2267 47.4185 6.53864 45.3361 6.53864 43.2537 6.53864 41.5657 8.22675 41.5657 10.3091 41.5657 12.3915 43.2538 14.0795 45.3361 14.0795 45.3377 14.0795 45.3393 14.0795 45.3409 14.0795 47.4211 14.0743 49.1061 12.3893 49.1114 10.3091ZM106.618 4.82045C105.489 4.81988 104.393 5.20743 103.516 5.91818L103.516 5.05909 101.75 5.05909 101.75 15.6068 103.516 15.6068 103.516 9.68864C103.502 7.9885 104.87 6.59954 106.57 6.58636 108.27 6.57319 109.659 7.94077 109.672 9.64091L109.672 15.6068 111.438 15.6068 111.438 9.68864C111.449 7.01424 109.292 4.8362 106.618 4.82045ZM98.2657 5.05909 100.032 5.05909 100.032 15.6068 98.2657 15.6068 98.2657 14.3659C96.0383 16.4351 92.5551 16.3069 90.4861 14.0795 88.4172 11.8522 88.5451 8.36917 90.7725 6.3 91.7776 5.34755 93.1107 4.81788 94.4952 4.82045 95.8927 4.82575 97.2376 5.35352 98.2657 6.3ZM98.2657 10.3091C98.2657 8.2267 96.5776 6.53864 94.4952 6.53864 92.4129 6.53864 90.7248 8.22675 90.7248 10.3091 90.7248 12.3915 92.4129 14.0795 94.4952 14.0795 96.5752 14.0743 98.2604 12.3893 98.2657 10.3091ZM117.309 6.825 117.309 5.05909 114.684 5.05909 114.684 2.19545 112.918 2.19545 112.918 12.1227C112.913 14.068 114.485 15.6492 116.431 15.6545 116.437 15.6545 116.444 15.6545 116.45 15.6545L117.309 15.6545 117.309 13.8409 116.455 13.8409C115.486 13.8256 114.704 13.0439 114.689 12.075L114.689 6.825ZM76.6452 1.24091C76.0152 1.23761 75.5017 1.74562 75.4988 2.37559 75.4983 2.3951 75.4988 2.4146 75.4998 2.43409 75.5131 3.07989 76.0472 3.59272 76.693 3.57955 77.3387 3.56637 77.8518 3.03216 77.8384 2.38636 77.7921 1.7555 77.2776 1.26121 76.6452 1.24091ZM88.0998 5.05909 79.318 5.05909 79.318 6.825 85.8089 6.825 79.318 13.8409 79.318 15.6068 88.0998 15.6068 88.0998 13.8409 81.6136 13.8409 88.1045 6.825Z" fill="#FFFFFF" fill-rule="nonzero" fill-opacity="1" transform="matrix(1.02811 0 0 1 1112.02 678)"/><path d="M10.5955 10.5 0 10.5 7.30227 21 14.8575 16.485 10.5955 10.5Z" fill="url(#fill0)" fill-rule="evenodd" transform="matrix(1.02811 0 0 1 1112.02 678)"/><path d="M24.8659 10.5 7.30227 21 17.7068 21 24.8659 10.5Z" fill="url(#fill1)" fill-rule="evenodd" transform="matrix(1.02811 0 0 1 1112.02 678)"/><path d="M0 10.5 10.5955 10.5 14.8575 4.515 7.30227 0 0 10.5Z" fill="url(#fill2)" fill-rule="evenodd" transform="matrix(1.02811 0 0 1 1112.02 678)"/><path d="M24.8659 10.5 7.30227 0 17.7068 0 24.8659 10.5Z" fill="url(#fill3)" fill-rule="evenodd" transform="matrix(1.02811 0 0 1 1112.02 678)"/></g></g></g></g></g></svg>